<svg xmlns="http://www.w3.org/2000/svg" viewBox="0 0 400 300" fill="none">
  <rect width="400" height="300" rx="12" fill="#1e3a5f"/>
  <g transform="translate(100,40)">
    <rect x="20" y="80" width="160" height="160" rx="12" fill="#e2e8f0"/>
    <rect x="35" y="95" width="130" height="130" rx="8" fill="#f0f4f8"/>
    <circle cx="100" cy="160" r="45" fill="none" stroke="#3b82f6" stroke-width="3" stroke-dasharray="8 4"/>
    <circle cx="100" cy="160" r="25" fill="#3b82f6" opacity="0.15"/>
    <circle cx="100" cy="160" r="12" fill="#3b82f6" opacity="0.3"/>
    <circle cx="100" cy="160" r="4" fill="#3b82f6"/>
    <g opacity="0.4">
      <path d="M40 140 Q30 130 35 120" stroke="#3b82f6" stroke-width="2" fill="none"/>
      <path d="M160 140 Q170 130 165 120" stroke="#3b82f6" stroke-width="2" fill="none"/>
      <path d="M40 180 Q30 190 35 200" stroke="#3b82f6" stroke-width="2" fill="none"/>
      <path d="M160 180 Q170 190 165 200" stroke="#3b82f6" stroke-width="2" fill="none"/>
    </g>
    <rect x="45" y="115" width="110" height="6" rx="3" fill="#3b82f6" opacity="0.15"/>
    <rect x="55" y="129" width="90" height="6" rx="3" fill="#3b82f6" opacity="0.1"/>
    <text x="100" y="70" text-anchor="middle" font-family="Arial" font-size="11" fill="#e2e8f0" font-weight="bold">HEPA Air Scrubber</text>
  </g>
</svg>
