<svg xmlns="http://www.w3.org/2000/svg" viewBox="0 0 400 300" fill="none">
  <rect width="400" height="300" rx="12" fill="#1e3a5f"/>
  <g transform="translate(50,60)">
    <rect x="10" y="40" width="200" height="50" rx="10" fill="#2c3e50"/>
    <rect x="10" y="40" width="200" height="50" rx="10" fill="url(#grip)" opacity="0.3"/>
    <rect x="10" y="40" width="30" height="50" rx="5" fill="#3b82f6"/>
    <rect x="100" y="40" width="120" height="50" rx="10" fill="#4a5568"/>
    <circle cx="190" cy="65" r="28" fill="#718096"/>
    <circle cx="190" cy="65" r="20" fill="#a0aec0"/>
    <circle cx="190" cy="65" r="12" fill="#2d3748"/>
    <circle cx="190" cy="65" r="4" fill="#3b82f6"/>
    <rect x="210" y="55" width="40" height="20" rx="3" fill="#3b82f6"/>
    <rect x="250" y="58" width="15" height="14" rx="2" fill="#a0aec0"/>
    <rect x="60" y="20" width="10" height="20" rx="3" fill="#3b82f6"/>
    <rect x="35" y="20" width="10" height="20" rx="3" fill="#3b82f6" opacity="0.7"/>
    <text x="110" y="30" text-anchor="middle" font-family="Arial" font-size="12" fill="#e2e8f0" font-weight="bold">Cordless Hammer Drill</text>
  </g>
  <defs>
    <linearGradient id="grip" x1="0" y1="0" x2="1" y2="0">
      <stop offset="0%" stop-color="#fff" stop-opacity="0.1"/>
      <stop offset="50%" stop-color="#fff" stop-opacity="0.3"/>
      <stop offset="100%" stop-color="#fff" stop-opacity="0.1"/>
    </linearGradient>
  </defs>
</svg>
